<?xml version="1.0" encoding="UTF-8" standalone="no"?>
<!DOCTYPE svg PUBLIC "-//W3C//DTD SVG 1.1//EN"
 "http://www.w3.org/Graphics/SVG/1.1/DTD/svg11.dtd">
<!-- Generated by graphviz version 2.43.0 (0)
 -->
<!-- Title: G Pages: 1 -->
<svg width="310pt" height="983pt"
 viewBox="0.00 0.00 297.50 944.00" xmlns="http://www.w3.org/2000/svg" xmlns:xlink="http://www.w3.org/1999/xlink">
<g id="graph0" class="graph" transform="scale(0.96 0.96) rotate(0) translate(4 940)">
<title>G</title>
<polygon fill="white" stroke="transparent" points="-4,4 -4,-940 293.5,-940 293.5,4 -4,4"/>
<!-- 139860499706208 -->
<g id="node1" class="node">
<title>139860499706208</title>
<polygon fill="none" stroke="black" points="103,-891.5 103,-935.5 227,-935.5 227,-891.5 103,-891.5"/>
<polygon fill="black" stroke="transparent" points="103,-891.5 103,-935.5 227,-935.5 227,-891.5 103,-891.5"/>
<polygon fill="black" stroke="transparent" points="105,-893.5 105,-933.5 225,-933.5 225,-893.5 105,-893.5"/>
<polygon fill="none" stroke="black" points="105,-893.5 105,-933.5 225,-933.5 225,-893.5 105,-893.5"/>
<text text-anchor="start" x="116" y="-910.7" font-family="Helvetica,sans-Serif" font-weight="bold" font-size="16.00" fill="white">InputLayer</text>
</g>
<!-- 139860446019008 -->
<g id="node2" class="node">
<title>139860446019008</title>
<polygon fill="none" stroke="black" points="0,-810.5 0,-854.5 202,-854.5 202,-810.5 0,-810.5"/>
<polygon fill="black" stroke="transparent" points="0,-810.5 0,-854.5 202,-854.5 202,-810.5 0,-810.5"/>
<polygon fill="black" stroke="transparent" points="2,-812.5 2,-852.5 200,-852.5 200,-812.5 2,-812.5"/>
<polygon fill="none" stroke="black" points="2,-812.5 2,-852.5 200,-852.5 200,-812.5 2,-812.5"/>
<text text-anchor="start" x="13" y="-829.7" font-family="Helvetica,sans-Serif" font-weight="bold" font-size="16.00" fill="white">LayerNormalization</text>
</g>
<!-- 139860499706208&#45;&gt;139860446019008 -->
<g id="edge1" class="edge">
<title>139860499706208&#45;&gt;139860446019008</title>
<path fill="none" stroke="black" stroke-width="2" d="M152.5,-891.37C152.5,-891.37 152.5,-864.61 152.5,-864.61"/>
<polygon fill="black" stroke="black" stroke-width="2" points="156,-864.61 152.5,-854.61 149,-864.61 156,-864.61"/>
</g>
<!-- 139860445706176 -->
<g id="node5" class="node">
<title>139860445706176</title>
<polygon fill="none" stroke="black" points="134,-567.5 134,-611.5 196,-611.5 196,-567.5 134,-567.5"/>
<polygon fill="black" stroke="transparent" points="134,-567.5 134,-611.5 196,-611.5 196,-567.5 134,-567.5"/>
<polygon fill="black" stroke="transparent" points="136,-569.5 136,-609.5 194,-609.5 194,-569.5 136,-569.5"/>
<polygon fill="none" stroke="black" points="136,-569.5 136,-609.5 194,-609.5 194,-569.5 136,-569.5"/>
<text text-anchor="start" x="147" y="-586.7" font-family="Helvetica,sans-Serif" font-weight="bold" font-size="16.00" fill="white">Add</text>
</g>
<!-- 139860499706208&#45;&gt;139860445706176 -->
<g id="edge5" class="edge">
<title>139860499706208&#45;&gt;139860445706176</title>
<path fill="none" stroke="black" stroke-width="2" d="M210.33,-891.5C210.33,-819.72 210.33,-597 210.33,-597 210.33,-597 206.49,-597 206.49,-597"/>
<polygon fill="black" stroke="black" stroke-width="2" points="206.49,-593.5 196.49,-597 206.49,-600.5 206.49,-593.5"/>
</g>
<!-- 139860446018864 -->
<g id="node3" class="node">
<title>139860446018864</title>
<polygon fill="none" stroke="black" points="0,-729.5 0,-773.5 202,-773.5 202,-729.5 0,-729.5"/>
<polygon fill="black" stroke="transparent" points="0,-729.5 0,-773.5 202,-773.5 202,-729.5 0,-729.5"/>
<polygon fill="black" stroke="transparent" points="2,-731.5 2,-771.5 200,-771.5 200,-731.5 2,-731.5"/>
<polygon fill="none" stroke="black" points="2,-731.5 2,-771.5 200,-771.5 200,-731.5 2,-731.5"/>
<text text-anchor="start" x="13" y="-748.7" font-family="Helvetica,sans-Serif" font-weight="bold" font-size="16.00" fill="white">MultiHeadAttention</text>
</g>
<!-- 139860446019008&#45;&gt;139860446018864 -->
<g id="edge2" class="edge">
<title>139860446019008&#45;&gt;139860446018864</title>
<path fill="none" stroke="black" stroke-width="2" d="M101,-810.37C101,-810.37 101,-783.61 101,-783.61"/>
<polygon fill="black" stroke="black" stroke-width="2" points="104.5,-783.61 101,-773.61 97.5,-783.61 104.5,-783.61"/>
</g>
<!-- 139860446006144 -->
<g id="node4" class="node">
<title>139860446006144</title>
<polygon fill="none" stroke="black" points="75.5,-648.5 75.5,-692.5 176.5,-692.5 176.5,-648.5 75.5,-648.5"/>
<polygon fill="black" stroke="transparent" points="75.5,-648.5 75.5,-692.5 176.5,-692.5 176.5,-648.5 75.5,-648.5"/>
<polygon fill="black" stroke="transparent" points="78,-650.5 78,-690.5 175,-690.5 175,-650.5 78,-650.5"/>
<polygon fill="none" stroke="black" points="78,-650.5 78,-690.5 175,-690.5 175,-650.5 78,-650.5"/>
<text text-anchor="start" x="89" y="-667.7" font-family="Helvetica,sans-Serif" font-weight="bold" font-size="16.00" fill="white">Dropout</text>
</g>
<!-- 139860446018864&#45;&gt;139860446006144 -->
<g id="edge3" class="edge">
<title>139860446018864&#45;&gt;139860446006144</title>
<path fill="none" stroke="black" stroke-width="2" d="M126,-729.37C126,-729.37 126,-702.61 126,-702.61"/>
<polygon fill="black" stroke="black" stroke-width="2" points="129.5,-702.61 126,-692.61 122.5,-702.61 129.5,-702.61"/>
</g>
<!-- 139860446006144&#45;&gt;139860445706176 -->
<g id="edge4" class="edge">
<title>139860446006144&#45;&gt;139860445706176</title>
<path fill="none" stroke="black" stroke-width="2" d="M155.25,-648.37C155.25,-648.37 155.25,-621.61 155.25,-621.61"/>
<polygon fill="black" stroke="black" stroke-width="2" points="158.75,-621.61 155.25,-611.61 151.75,-621.61 158.75,-621.61"/>
</g>
<!-- 139860445705504 -->
<g id="node6" class="node">
<title>139860445705504</title>
<polygon fill="none" stroke="black" points="0,-486.5 0,-530.5 202,-530.5 202,-486.5 0,-486.5"/>
<polygon fill="black" stroke="transparent" points="0,-486.5 0,-530.5 202,-530.5 202,-486.5 0,-486.5"/>
<polygon fill="black" stroke="transparent" points="2,-488.5 2,-528.5 200,-528.5 200,-488.5 2,-488.5"/>
<polygon fill="none" stroke="black" points="2,-488.5 2,-528.5 200,-528.5 200,-488.5 2,-488.5"/>
<text text-anchor="start" x="13" y="-505.7" font-family="Helvetica,sans-Serif" font-weight="bold" font-size="16.00" fill="white">LayerNormalization</text>
</g>
<!-- 139860445706176&#45;&gt;139860445705504 -->
<g id="edge6" class="edge">
<title>139860445706176&#45;&gt;139860445705504</title>
<path fill="none" stroke="black" stroke-width="2" d="M165,-567.37C165,-567.37 165,-540.61 165,-540.61"/>
<polygon fill="black" stroke="black" stroke-width="2" points="168.5,-540.61 165,-530.61 161.5,-540.61 168.5,-540.61"/>
</g>
<!-- 139860445699840 -->
<g id="node8" class="node">
<title>139860445699840</title>
<polygon fill="none" stroke="black" points="134,-324.5 134,-368.5 196,-368.5 196,-324.5 134,-324.5"/>
<polygon fill="black" stroke="transparent" points="134,-324.5 134,-368.5 196,-368.5 196,-324.5 134,-324.5"/>
<polygon fill="black" stroke="transparent" points="136,-326.5 136,-366.5 194,-366.5 194,-326.5 136,-326.5"/>
<polygon fill="none" stroke="black" points="136,-326.5 136,-366.5 194,-366.5 194,-326.5 136,-326.5"/>
<text text-anchor="start" x="147" y="-343.7" font-family="Helvetica,sans-Serif" font-weight="bold" font-size="16.00" fill="white">Add</text>
</g>
<!-- 139860445706176&#45;&gt;139860445699840 -->
<g id="edge9" class="edge">
<title>139860445706176&#45;&gt;139860445699840</title>
<path fill="none" stroke="black" stroke-width="2" d="M196.22,-582C208.02,-582 218.67,-582 218.67,-582 218.67,-582 218.67,-346 218.67,-346 218.67,-346 206.22,-346 206.22,-346"/>
<polygon fill="black" stroke="black" stroke-width="2" points="206.22,-342.5 196.22,-346 206.22,-349.5 206.22,-342.5"/>
</g>
<!-- 139860445702048 -->
<g id="node7" class="node">
<title>139860445702048</title>
<polygon fill="none" stroke="black" points="75.5,-405.5 75.5,-449.5 176.5,-449.5 176.5,-405.5 75.5,-405.5"/>
<polygon fill="black" stroke="transparent" points="75.5,-405.5 75.5,-449.5 176.5,-449.5 176.5,-405.5 75.5,-405.5"/>
<polygon fill="black" stroke="transparent" points="78,-407.5 78,-447.5 175,-447.5 175,-407.5 78,-407.5"/>
<polygon fill="none" stroke="black" points="78,-407.5 78,-447.5 175,-447.5 175,-407.5 78,-407.5"/>
<text text-anchor="start" x="89" y="-424.7" font-family="Helvetica,sans-Serif" font-weight="bold" font-size="16.00" fill="white">Dropout</text>
</g>
<!-- 139860445705504&#45;&gt;139860445702048 -->
<g id="edge7" class="edge">
<title>139860445705504&#45;&gt;139860445702048</title>
<path fill="none" stroke="black" stroke-width="2" d="M126,-486.37C126,-486.37 126,-459.61 126,-459.61"/>
<polygon fill="black" stroke="black" stroke-width="2" points="129.5,-459.61 126,-449.61 122.5,-459.61 129.5,-459.61"/>
</g>
<!-- 139860445702048&#45;&gt;139860445699840 -->
<g id="edge8" class="edge">
<title>139860445702048&#45;&gt;139860445699840</title>
<path fill="none" stroke="black" stroke-width="2" d="M155.25,-405.37C155.25,-405.37 155.25,-378.61 155.25,-378.61"/>
<polygon fill="black" stroke="black" stroke-width="2" points="158.75,-378.61 155.25,-368.61 151.75,-378.61 158.75,-378.61"/>
</g>
<!-- 139860445699264 -->
<g id="node9" class="node">
<title>139860445699264</title>
<polygon fill="none" stroke="black" points="40.5,-243.5 40.5,-287.5 289.5,-287.5 289.5,-243.5 40.5,-243.5"/>
<polygon fill="black" stroke="transparent" points="40.5,-243.5 40.5,-287.5 289.5,-287.5 289.5,-243.5 40.5,-243.5"/>
<polygon fill="black" stroke="transparent" points="43,-245.5 43,-285.5 288,-285.5 288,-245.5 43,-245.5"/>
<polygon fill="none" stroke="black" points="43,-245.5 43,-285.5 288,-285.5 288,-245.5 43,-245.5"/>
<text text-anchor="start" x="54" y="-262.7" font-family="Helvetica,sans-Serif" font-weight="bold" font-size="16.00" fill="white">GlobalAveragePooling1D</text>
</g>
<!-- 139860445699840&#45;&gt;139860445699264 -->
<g id="edge10" class="edge">
<title>139860445699840&#45;&gt;139860445699264</title>
<path fill="none" stroke="black" stroke-width="2" d="M165,-324.37C165,-324.37 165,-297.61 165,-297.61"/>
<polygon fill="black" stroke="black" stroke-width="2" points="168.5,-297.61 165,-287.61 161.5,-297.61 168.5,-297.61"/>
</g>
<!-- 139860445698544 -->
<g id="node10" class="node">
<title>139860445698544</title>
<polygon fill="none" stroke="black" points="124,-162.5 124,-206.5 206,-206.5 206,-162.5 124,-162.5"/>
<polygon fill="black" stroke="transparent" points="124,-162.5 124,-206.5 206,-206.5 206,-162.5 124,-162.5"/>
<polygon fill="black" stroke="transparent" points="126,-164.5 126,-204.5 204,-204.5 204,-164.5 126,-164.5"/>
<polygon fill="none" stroke="black" points="126,-164.5 126,-204.5 204,-204.5 204,-164.5 126,-164.5"/>
<text text-anchor="start" x="137" y="-181.7" font-family="Helvetica,sans-Serif" font-weight="bold" font-size="16.00" fill="white">Dense</text>
</g>
<!-- 139860445699264&#45;&gt;139860445698544 -->
<g id="edge11" class="edge">
<title>139860445699264&#45;&gt;139860445698544</title>
<path fill="none" stroke="black" stroke-width="2" d="M165,-243.37C165,-243.37 165,-216.61 165,-216.61"/>
<polygon fill="black" stroke="black" stroke-width="2" points="168.5,-216.61 165,-206.61 161.5,-216.61 168.5,-216.61"/>
</g>
<!-- 139860445697488 -->
<g id="node11" class="node">
<title>139860445697488</title>
<polygon fill="none" stroke="black" points="114.5,-81.5 114.5,-125.5 215.5,-125.5 215.5,-81.5 114.5,-81.5"/>
<polygon fill="black" stroke="transparent" points="114.5,-81.5 114.5,-125.5 215.5,-125.5 215.5,-81.5 114.5,-81.5"/>
<polygon fill="black" stroke="transparent" points="117,-83.5 117,-123.5 214,-123.5 214,-83.5 117,-83.5"/>
<polygon fill="none" stroke="black" points="117,-83.5 117,-123.5 214,-123.5 214,-83.5 117,-83.5"/>
<text text-anchor="start" x="128" y="-100.7" font-family="Helvetica,sans-Serif" font-weight="bold" font-size="16.00" fill="white">Dropout</text>
</g>
<!-- 139860445698544&#45;&gt;139860445697488 -->
<g id="edge12" class="edge">
<title>139860445698544&#45;&gt;139860445697488</title>
<path fill="none" stroke="black" stroke-width="2" d="M165,-162.37C165,-162.37 165,-135.61 165,-135.61"/>
<polygon fill="black" stroke="black" stroke-width="2" points="168.5,-135.61 165,-125.61 161.5,-135.61 168.5,-135.61"/>
</g>
<!-- 139860489706352 -->
<g id="node12" class="node">
<title>139860489706352</title>
<polygon fill="none" stroke="black" points="124,-0.5 124,-44.5 206,-44.5 206,-0.5 124,-0.5"/>
<polygon fill="black" stroke="transparent" points="124,-0.5 124,-44.5 206,-44.5 206,-0.5 124,-0.5"/>
<polygon fill="black" stroke="transparent" points="126,-2.5 126,-42.5 204,-42.5 204,-2.5 126,-2.5"/>
<polygon fill="none" stroke="black" points="126,-2.5 126,-42.5 204,-42.5 204,-2.5 126,-2.5"/>
<text text-anchor="start" x="137" y="-19.7" font-family="Helvetica,sans-Serif" font-weight="bold" font-size="16.00" fill="white">Dense</text>
</g>
<!-- 139860445697488&#45;&gt;139860489706352 -->
<g id="edge13" class="edge">
<title>139860445697488&#45;&gt;139860489706352</title>
<path fill="none" stroke="black" stroke-width="2" d="M165,-81.37C165,-81.37 165,-54.61 165,-54.61"/>
<polygon fill="black" stroke="black" stroke-width="2" points="168.5,-54.61 165,-44.61 161.5,-54.61 168.5,-54.61"/>
</g>
</g>
</svg>
